<svg width="86" height="76" viewBox="0 0 86 76" fill="none" xmlns="http://www.w3.org/2000/svg">
<path d="M83.2369 59.0713H26.8506V56.3863C26.8506 54.9095 25.6423 53.7012 24.1656 53.7012H18.7954C17.3186 53.7012 16.1104 54.9095 16.1104 56.3863V59.0713H2.68506C1.20828 59.0713 0 60.2796 0 61.7564V67.1265C0 68.6033 1.20828 69.8116 2.68506 69.8116H16.1104V72.4967C16.1104 73.9734 17.3186 75.1817 18.7954 75.1817H24.1656C25.6423 75.1817 26.8506 73.9734 26.8506 72.4967V69.8116H83.2369C84.7137 69.8116 85.922 68.6033 85.922 67.1265V61.7564C85.922 60.2796 84.7137 59.0713 83.2369 59.0713ZM83.2369 32.2207H69.8116V29.5357C69.8116 28.0589 68.6033 26.8506 67.1265 26.8506H61.7564C60.2796 26.8506 59.0713 28.0589 59.0713 29.5357V32.2207H2.68506C1.20828 32.2207 0 33.429 0 34.9058V40.2759C0 41.7527 1.20828 42.961 2.68506 42.961H59.0713V45.646C59.0713 47.1228 60.2796 48.3311 61.7564 48.3311H67.1265C68.6033 48.3311 69.8116 47.1228 69.8116 45.646V42.961H83.2369C84.7137 42.961 85.922 41.7527 85.922 40.2759V34.9058C85.922 33.429 84.7137 32.2207 83.2369 32.2207ZM83.2369 5.37012H48.3311V2.68506C48.3311 1.20828 47.1228 0 45.646 0H40.2759C38.7991 0 37.5909 1.20828 37.5909 2.68506V5.37012H2.68506C1.20828 5.37012 0 6.5784 0 8.05518V13.4253C0 14.9021 1.20828 16.1104 2.68506 16.1104H37.5909V18.7954C37.5909 20.2722 38.7991 21.4805 40.2759 21.4805H45.646C47.1228 21.4805 48.3311 20.2722 48.3311 18.7954V16.1104H83.2369C84.7137 16.1104 85.922 14.9021 85.922 13.4253V8.05518C85.922 6.5784 84.7137 5.37012 83.2369 5.37012Z" fill="#07512D"/>
</svg>
