<svg width="94" height="75" viewBox="0 0 94 75" fill="none" xmlns="http://www.w3.org/2000/svg">
<path d="M91.4062 51.5625H89.0625V35.7275C89.0625 33.8672 88.3154 32.0801 86.9971 30.7617L72.3633 16.1279C71.0449 14.8096 69.2578 14.0625 67.3975 14.0625H60.9375V7.03125C60.9375 3.14941 57.7881 0 53.9062 0H7.03125C3.14941 0 0 3.14941 0 7.03125V53.9062C0 57.7881 3.14941 60.9375 7.03125 60.9375H9.375C9.375 68.7012 15.6738 75 23.4375 75C31.2012 75 37.5 68.7012 37.5 60.9375H56.25C56.25 68.7012 62.5488 75 70.3125 75C78.0762 75 84.375 68.7012 84.375 60.9375H91.4062C92.6953 60.9375 93.75 59.8828 93.75 58.5938V53.9062C93.75 52.6172 92.6953 51.5625 91.4062 51.5625ZM23.4375 67.9688C19.5557 67.9688 16.4062 64.8193 16.4062 60.9375C16.4062 57.0557 19.5557 53.9062 23.4375 53.9062C27.3193 53.9062 30.4688 57.0557 30.4688 60.9375C30.4688 64.8193 27.3193 67.9688 23.4375 67.9688ZM70.3125 67.9688C66.4307 67.9688 63.2812 64.8193 63.2812 60.9375C63.2812 57.0557 66.4307 53.9062 70.3125 53.9062C74.1943 53.9062 77.3438 57.0557 77.3438 60.9375C77.3438 64.8193 74.1943 67.9688 70.3125 67.9688ZM82.0312 37.5H60.9375V21.0938H67.3975L82.0312 35.7275V37.5Z" fill="#07512D"/>
</svg>
